<svg xmlns="http://www.w3.org/2000/svg" width="807.96875" height="366.484375" viewBox="0 0 807.96875 366.484375">

  <defs>
    <style>
      text { font-family: system-ui, -apple-system, "Segoe UI", sans-serif; font-size: 12px; fill: #111827; }
      .shape-rect { fill: #ffffff; stroke: #9ca3af; stroke-width: 1; }
      .shape-entity { fill: #ffffff; stroke: #111827; stroke-width: 2; }
      .shape-circle { fill: #ffffff; stroke: #9ca3af; stroke-width: 1; }
      .shape-pill { fill: #ffffff; stroke: #9ca3af; stroke-width: 1; }
      .shape-db { fill: #ffffff; stroke: #9ca3af; stroke-width: 1; }
      .conn { stroke: #111827; stroke-width: 2; fill: none; }
    </style>
    <marker id="arrow-end" markerWidth="10" markerHeight="7" refX="10" refY="3.5"
            orient="auto" markerUnits="strokeWidth">
      <polygon points="0 0, 10 3.5, 0 7" fill="#111827"/>
    </marker>
    <marker id="arrow-start" markerWidth="10" markerHeight="7" refX="0" refY="3.5"
            orient="auto" markerUnits="strokeWidth">
      <polygon points="10 0, 0 3.5, 10 7" fill="#111827"/>
    </marker>
  </defs>
        
<rect class="shape-entity" x="40" y="40.3125" width="219.9999734629756" height="147.0000026537025" />
<line x1="40" y1="66.31249469259512" x2="259.9999734629756" y2="66.31249469259512" stroke="#e5e7eb" stroke-width="1"/>
<text x="149.9999867314878" y="58.31249203889267" text-anchor="middle">Cliente</text>
<text x="123.84375" y="85.81248540463655">id</text>
<text x="123.84375" y="108.8124893851902">nombre</text>
<text x="123.84375" y="131.8125">apellidos</text>
<text x="123.84375" y="154.81248407778534">email</text>
<rect class="shape-entity" x="296.8437659222147" y="40" width="219.99992038892668" height="123.9999920388927" />
<line x1="296.8437659222147" y1="65.99999469259512" x2="516.8436863111414" y2="65.99999469259512" stroke="#e5e7eb" stroke-width="1"/>
<text x="406.843726116678" y="57.99999203889267" text-anchor="middle">Pedido</text>
<text x="378.53122346297556" y="85.49998540463655">id</text>
<text x="378.53122346297556" y="108.4999893851902">fecha</text>
<text x="378.53122346297556" y="131.5">cliente_id</text>
<rect class="shape-entity" x="547.96875" y="111.59374734629753" width="220.00000000000006" height="123.9999920388927" />
<line x1="547.96875" y1="137.59374203889266" x2="767.96875" y2="137.59374203889266" stroke="#e5e7eb" stroke-width="1"/>
<text x="657.96875" y="129.5937393851902" text-anchor="middle">LineaPedido</text>
<text x="622.4375000000002" y="157.09373938519022">id</text>
<text x="622.4375000000002" y="180.09374999999997">pedido_id</text>
<text x="622.4375000000002" y="203.09374071204147">producto_id</text>
<rect class="shape-entity" x="297.5312340777853" y="202.48434315557066" width="219.9999734629756" height="124.00003184442939" />
<line x1="297.5312340777853" y1="228.48436438519022" x2="517.5312075407609" y2="228.48436438519022" stroke="#e5e7eb" stroke-width="1"/>
<text x="407.5312208092731" y="220.484375" text-anchor="middle">Producto</text>
<text x="384.54684846297556" y="247.984375">id</text>
<text x="384.54684846297556" y="270.9843590777853">nombre</text>
<text x="384.54684846297556" y="293.9843696925952">precio</text>
<path class="conn" d="M 198.14063030740493 83.04072386917062 L 356.5312659222147 126.27177541272263" marker-end="url(#arrow-end)" />
<path class="conn" d="M 457.1561863111414 84.29528670631413 L 600.4374363111415 173.29845533257853" marker-end="url(#arrow-end)" />
<path class="conn" d="M 452.50000000000017 242.69719050330482 L 600.4374363111415 200.38091857448055" marker-end="url(#arrow-end)" />
</svg>